<svg width="24" height="24" viewBox="0 0 24 24" fill="none" xmlns="http://www.w3.org/2000/svg">
<path d="M11.667 0.333344C17.1664 0.333344 19.9166 0.333813 21.625 2.04233C23.3332 3.75089 23.333 6.50098 23.333 12.0003C23.333 17.4998 23.3335 20.2499 21.625 21.9583C19.9166 23.6669 17.1664 23.6664 11.667 23.6664C6.16763 23.6664 3.41755 23.6666 1.70898 21.9583C0.000469519 20.2499 6.56377e-10 17.4998 0 12.0003C0 6.50061 0.000435892 3.75086 1.70898 2.04233C3.41752 0.333779 6.16727 0.333344 11.667 0.333344ZM16.3691 8.4642C16.0274 8.12285 15.4735 8.12275 15.1318 8.4642L9.91699 13.679L8.20312 11.9642C7.86142 11.6225 7.30655 11.6225 6.96484 11.9642C6.62314 12.3059 6.62314 12.8608 6.96484 13.2025L9.29883 15.5355C9.64059 15.877 10.1945 15.8771 10.5361 15.5355L16.3691 9.70248C16.7109 9.36081 16.7109 8.80591 16.3691 8.4642Z" fill="#E5EAEE"/>
</svg>
